<svg width="1195" height="1326" viewBox="0 0 1195 1326" fill="none" xmlns="http://www.w3.org/2000/svg">
<path fill-rule="evenodd" clip-rule="evenodd" d="M538.519 431.172C533.819 419.472 456.819 448.072 450.219 450.872C254.219 533.972 257.62 848.472 445.92 940.872C523.52 978.972 681.42 977.472 740.62 958.372C968.12 884.972 998.419 370.271 538.519 431.172Z" fill="#FF8E6C"/>
<path d="M538.519 431.172C533.819 419.472 456.819 448.072 450.219 450.872C254.219 533.972 257.62 848.472 445.92 940.872C523.52 978.972 681.42 977.472 740.62 958.372C968.12 884.972 998.419 370.272 538.519 431.172Z" stroke="#161616" stroke-width="8" stroke-miterlimit="10" stroke-linecap="round" stroke-linejoin="round"/>
<path d="M692.92 646.972C719.92 681.972 783.619 673.972 808.719 642.072" stroke="#161616" stroke-width="8" stroke-miterlimit="10" stroke-linecap="round" stroke-linejoin="round"/>
<path d="M395.919 642.072C423.219 676.872 486.82 668.371 511.62 636.171" stroke="#161616" stroke-width="8" stroke-miterlimit="10" stroke-linecap="round" stroke-linejoin="round"/>
<path fill-rule="evenodd" clip-rule="evenodd" d="M1053.52 1260.07C979.319 1292.67 967.019 1133.27 907.219 1112.47C849.919 1092.57 858.32 1042.77 837.92 1013.17C817.72 983.971 808.519 989.872 781.019 967.772C765.919 955.672 768.619 914.272 759.019 899.472C745.219 878.072 727.719 874.172 708.319 858.972C690.119 844.672 675.619 825.872 659.719 811.972C640.719 795.372 630.62 767.372 598.92 780.572C598.82 777.872 570.719 810.872 568.219 815.372C561.219 828.072 553.819 840.772 545.019 852.272C527.719 874.772 496.12 894.672 487.42 922.772C482.42 938.772 488.919 956.672 476.12 969.972C455.82 990.972 424.019 997.172 402.519 1017.37C382.419 1036.27 385.319 1064.37 368.819 1085.37C351.919 1106.97 315.819 1122.97 296.219 1141.77C279.719 1157.57 259.019 1294.77 199.319 1279.07" fill="#F7F2EE"/>
<path d="M1053.52 1260.07C979.319 1292.67 967.019 1133.27 907.219 1112.47C849.919 1092.57 858.32 1042.77 837.92 1013.17C817.72 983.971 808.519 989.872 781.019 967.772C765.919 955.672 768.619 914.272 759.019 899.472C745.219 878.072 727.719 874.172 708.319 858.972C690.119 844.672 675.619 825.872 659.719 811.972C640.719 795.372 630.62 767.372 598.92 780.572C598.82 777.872 570.719 810.872 568.219 815.372C561.219 828.072 553.819 840.772 545.019 852.272C527.719 874.772 496.12 894.672 487.42 922.772C482.42 938.772 488.92 956.672 476.12 969.972C455.82 990.972 424.019 997.172 402.519 1017.37C382.419 1036.27 385.319 1064.37 368.819 1085.37C351.919 1106.97 315.819 1122.97 296.219 1141.77C279.719 1157.57 259.019 1294.77 199.319 1279.07" stroke="#161616" stroke-width="8" stroke-miterlimit="10" stroke-linecap="round" stroke-linejoin="round"/>
<path d="M596.42 798.171C593.92 792.971 594.319 823.471 592.219 828.871C587.419 841.471 580.02 852.371 571.12 862.371C554.52 880.971 529.519 898.271 521.819 922.971C515.919 941.671 520.72 961.072 509.42 978.572C493.72 1002.97 463.119 1012.97 443.219 1033.27C426.619 1050.27 426.119 1073.47 414.519 1093.07C401.419 1115.47 379.419 1129.57 368.219 1153.77C345.119 1203.97 357.519 1174.57 334.519 1224.67" stroke="#161616" stroke-width="4" stroke-miterlimit="10" stroke-linecap="round" stroke-linejoin="round"/>
<path d="M600.92 821.771C599.42 860.971 548.219 901.471 537.719 925.671C528.219 947.471 531.42 969.271 515.42 989.171C495.72 1013.67 464.619 1027.47 447.219 1053.77C430.419 1079.27 383.919 1181.67 384.519 1208.07C385.219 1239.17 397.619 1268.57 395.919 1300.07" stroke="#161616" stroke-width="4" stroke-miterlimit="10" stroke-linecap="round" stroke-linejoin="round"/>
<path d="M614.519 791.671C613.219 807.571 621.019 848.171 622.219 855.771C625.719 878.071 622.419 901.372 614.519 922.372C594.319 975.772 547.919 1016.37 541.319 1075.57C536.619 1118.07 569.019 1137.07 578.019 1174.47C588.819 1219.67 555.319 1223.97 541.319 1265.27" stroke="#161616" stroke-width="4" stroke-miterlimit="10" stroke-linecap="round" stroke-linejoin="round"/>
<path d="M623.019 810.671C622.719 809.671 628.32 830.571 630.42 835.171C634.92 845.071 635.22 870.372 634.92 882.972C634.02 914.272 628.519 919.571 619.819 950.671C610.519 983.871 570.419 1032.17 566.119 1066.77C556.619 1143.87 651.719 1173.37 617.719 1300.27" stroke="#161616" stroke-width="4" stroke-miterlimit="10" stroke-linecap="round" stroke-linejoin="round"/>
<path d="M633.819 806.171C639.719 814.571 658.219 827.971 664.319 836.171C685.819 864.971 707.32 904.672 709.92 933.372C711.92 955.572 704.92 1009.77 718.42 1028.57C733.52 1049.57 780.519 1047.47 793.019 1070.87C807.519 1097.97 790.12 1137.57 812.42 1159.47C870.32 1216.27 859.22 1260.27 865.62 1281.47" stroke="#161616" stroke-width="4" stroke-miterlimit="10" stroke-linecap="round" stroke-linejoin="round"/>
<path d="M639.319 826.472C650.819 840.372 659.619 854.672 665.019 864.972C682.719 898.372 682.519 930.271 682.019 968.271C681.519 998.871 677.619 1030.27 691.319 1058.87C705.219 1087.77 761.22 1075.07 769.12 1107.17C777.32 1140.87 761.919 1152.87 797.819 1203.37C810.119 1220.67 782.62 1272.67 770.42 1305.67" stroke="#161616" stroke-width="4" stroke-miterlimit="10" stroke-linecap="round" stroke-linejoin="round"/>
<path fill-rule="evenodd" clip-rule="evenodd" d="M940.719 1173.57C944.019 1192.07 937.019 1162.67 926.019 1171.87C917.419 1179.07 902.019 1192.27 899.019 1221.87C898.919 1222.97 889.119 1214.07 883.119 1193.27C878.219 1176.47 901.719 1167.37 922.419 1171.47C930.719 1173.07 936.619 1160.77 940.719 1173.57Z" fill="#F7F2EE"/>
<path d="M940.719 1173.57C944.019 1192.07 937.019 1162.67 926.019 1171.87C917.419 1179.07 902.019 1192.27 899.019 1221.87C898.919 1222.97 889.119 1214.07 883.119 1193.27C878.219 1176.47 901.719 1167.37 922.419 1171.47C930.719 1173.07 936.619 1160.77 940.719 1173.57Z" stroke="#161616" stroke-width="4" stroke-miterlimit="10" stroke-linecap="round" stroke-linejoin="round"/>
<path fill-rule="evenodd" clip-rule="evenodd" d="M977.62 1172.17C982.12 1170.27 994.82 1158.87 1000.12 1156.37C1019.42 1147.27 1037.42 1171.27 1051.22 1180.57C1057.02 1184.47 1063.22 1186.67 1069.82 1188.37C1070.22 1188.47 1072.32 1188.87 1072.22 1189.57V1189.67C1071.72 1190.97 1049.12 1198.17 1046.72 1198.97C1019.02 1208.17 962.12 1202.87 938.92 1182.47" fill="#F7F2EE"/>
<path d="M977.62 1172.17C982.12 1170.27 994.82 1158.87 1000.12 1156.37C1019.42 1147.27 1037.42 1171.27 1051.22 1180.57C1057.02 1184.47 1063.22 1186.67 1069.82 1188.37C1070.22 1188.47 1072.32 1188.87 1072.22 1189.57V1189.67C1071.72 1190.97 1049.12 1198.17 1046.72 1198.97C1019.02 1208.17 962.12 1202.87 938.92 1182.47" stroke="#161616" stroke-width="4" stroke-miterlimit="10" stroke-linecap="round" stroke-linejoin="round"/>
<path fill-rule="evenodd" clip-rule="evenodd" d="M935.619 1182.27C991.019 1192.87 1001.82 1123.87 981.719 1125.37C976.719 1125.77 977.919 1120.77 973.719 1120.17C971.919 1119.87 976.319 1127.97 972.819 1134.67C970.819 1138.47 974.119 1148.07 972.719 1150.07C966.419 1159.97 953.02 1159.77 954.42 1143.87C955.42 1133.07 959.619 1121.67 956.519 1110.97C950.719 1090.77 934.919 1074.77 928.819 1052.97C926.219 1043.47 925.419 1033.67 923.519 1023.97C923.419 1023.47 923.119 1020.77 922.119 1021.37C918.519 1023.47 913.319 1057.57 912.619 1063.17C907.719 1100.07 898.019 1175.07 935.619 1182.27Z" fill="#F7F2EE"/>
<path d="M935.619 1182.27C991.019 1192.87 1001.82 1123.87 981.719 1125.37C976.719 1125.77 977.919 1120.77 973.719 1120.17C971.919 1119.87 976.319 1127.97 972.819 1134.67C970.819 1138.47 974.119 1148.07 972.719 1150.07C966.419 1159.97 953.02 1159.77 954.42 1143.87C955.42 1133.07 959.619 1121.67 956.519 1110.97C950.719 1090.77 934.919 1074.77 928.819 1052.97C926.219 1043.47 925.419 1033.67 923.519 1023.97C923.419 1023.47 923.119 1020.77 922.119 1021.37C918.519 1023.47 913.319 1057.57 912.619 1063.17C907.719 1100.07 898.019 1175.07 935.619 1182.27Z" stroke="#161616" stroke-width="4" stroke-miterlimit="10" stroke-linecap="round" stroke-linejoin="round"/>
<path fill-rule="evenodd" clip-rule="evenodd" d="M225.519 1154.37C220.119 1150.87 197.519 1145.67 200.919 1157.67C203.519 1166.67 221.919 1167.87 229.419 1171.67C230.019 1171.97 233.319 1172.87 233.019 1173.77C232.819 1174.57 222.119 1175.07 220.219 1179.87C215.619 1191.77 220.119 1205.87 214.419 1217.97C211.619 1223.87 197.819 1234.77 199.519 1236.07C205.119 1240.17 215.82 1240.37 222.12 1240.17C271.42 1238.97 244.82 1189.87 264.12 1177.37C280.42 1166.77 310.42 1205.47 325.12 1194.77C331.82 1189.87 311.219 1181.27 317.719 1173.27C321.119 1168.97 335.719 1165.27 334.719 1158.87C334.32 1156.17 330.419 1154.27 328.019 1153.37C305.219 1144.27 275.52 1173.47 262.72 1163.27C256.319 1158.17 270.319 1137.17 268.319 1128.17C264.119 1108.87 242.419 1096.67 228.719 1082.67C228.019 1081.97 224.219 1076.77 222.919 1077.17C221.919 1077.47 221.92 1079.57 221.719 1080.47C220.619 1085.37 223.519 1089.67 223.219 1094.57C222.619 1103.97 218.719 1112.77 219.519 1122.37C219.619 1123.87 219.919 1125.37 220.319 1126.87C222.219 1133.17 254.119 1161.27 230.419 1157.37" fill="#F7F2EE"/>
<path d="M225.519 1154.37C220.119 1150.87 197.519 1145.67 200.919 1157.67C203.519 1166.67 221.919 1167.87 229.419 1171.67C230.019 1171.97 233.319 1172.87 233.019 1173.77C232.819 1174.57 222.119 1175.07 220.219 1179.87C215.619 1191.77 220.119 1205.87 214.419 1217.97C211.619 1223.87 197.819 1234.77 199.519 1236.07C205.119 1240.17 215.82 1240.37 222.12 1240.17C271.42 1238.97 244.82 1189.87 264.12 1177.37C280.42 1166.77 310.42 1205.47 325.12 1194.77C331.82 1189.87 311.219 1181.27 317.719 1173.27C321.119 1168.97 335.719 1165.27 334.719 1158.87C334.319 1156.17 330.419 1154.27 328.019 1153.37C305.219 1144.27 275.52 1173.47 262.72 1163.27C256.32 1158.17 270.319 1137.17 268.319 1128.17C264.119 1108.87 242.419 1096.67 228.719 1082.67C228.019 1081.97 224.219 1076.77 222.919 1077.17C221.919 1077.47 221.919 1079.57 221.719 1080.47C220.619 1085.37 223.519 1089.67 223.219 1094.57C222.619 1103.97 218.719 1112.77 219.519 1122.37C219.619 1123.87 219.919 1125.37 220.319 1126.87C222.219 1133.17 254.119 1161.27 230.419 1157.37" stroke="#161616" stroke-width="4" stroke-miterlimit="10" stroke-linecap="round" stroke-linejoin="round"/>
<path fill-rule="evenodd" clip-rule="evenodd" d="M488.62 1277.87C483.82 1281.87 471.919 1301.27 483.819 1301.37C492.719 1301.47 499.619 1284.77 505.519 1278.87C505.919 1278.47 507.819 1275.67 508.519 1276.07C509.219 1276.47 506.319 1286.47 510.019 1289.47C519.319 1296.97 533.52 1296.57 542.62 1305.07C547.12 1309.27 552.619 1324.87 554.219 1323.67C559.719 1319.57 563.219 1309.77 565.019 1303.97C579.519 1258.27 526.62 1269.57 521.42 1248.47C517.02 1230.57 561.52 1213.47 556.42 1196.97C554.12 1189.47 539.82 1206.07 534.62 1197.97C531.82 1193.67 533.02 1179.27 526.92 1178.37C524.32 1178.07 521.419 1181.07 519.819 1183.07C504.419 1201.57 521.42 1236.77 508.12 1245.87C501.52 1250.37 486.919 1231.87 478.219 1231.27C459.419 1229.97 441.519 1246.57 424.519 1255.47C423.619 1255.97 417.719 1258.07 417.719 1259.37C417.719 1260.37 419.619 1260.97 420.319 1261.37C424.419 1263.77 429.219 1262.17 433.519 1263.77C441.819 1266.77 448.619 1272.77 457.519 1274.67C458.919 1274.97 460.319 1275.07 461.819 1275.07C468.019 1275.07 503.62 1253.27 492.62 1274.07" fill="#F7F2EE"/>
<path d="M488.62 1277.87C483.82 1281.87 471.919 1301.27 483.819 1301.37C492.719 1301.47 499.619 1284.77 505.519 1278.87C505.919 1278.47 507.819 1275.67 508.519 1276.07C509.219 1276.47 506.319 1286.47 510.019 1289.47C519.319 1296.97 533.52 1296.57 542.62 1305.07C547.12 1309.27 552.619 1324.87 554.219 1323.67C559.719 1319.57 563.219 1309.77 565.019 1303.97C579.519 1258.27 526.62 1269.57 521.42 1248.47C517.02 1230.57 561.52 1213.47 556.42 1196.97C554.12 1189.47 539.82 1206.07 534.62 1197.97C531.82 1193.67 533.02 1179.27 526.92 1178.37C524.32 1178.07 521.419 1181.07 519.819 1183.07C504.419 1201.57 521.42 1236.77 508.12 1245.87C501.52 1250.37 486.919 1231.87 478.219 1231.27C459.419 1229.97 441.519 1246.57 424.519 1255.47C423.619 1255.97 417.719 1258.07 417.719 1259.37C417.719 1260.37 419.619 1260.97 420.319 1261.37C424.419 1263.77 429.219 1262.17 433.519 1263.77C441.819 1266.77 448.619 1272.77 457.519 1274.67C458.919 1274.97 460.319 1275.07 461.819 1275.07C468.019 1275.07 503.62 1253.27 492.62 1274.07" stroke="#161616" stroke-width="4" stroke-miterlimit="10" stroke-linecap="round" stroke-linejoin="round"/>
<path fill-rule="evenodd" clip-rule="evenodd" d="M724.32 1174.37C724.52 1179.77 731.62 1198.17 738.12 1190.07C742.92 1183.97 735.12 1170.47 734.12 1163.37C734.02 1162.87 733.12 1160.07 733.82 1159.87C734.52 1159.67 739.82 1166.87 743.92 1165.87C754.12 1163.37 761.419 1153.47 772.219 1151.67C777.519 1150.77 791.32 1155.27 791.42 1153.47C791.52 1147.57 786.62 1139.97 783.62 1135.67C759.72 1101.67 739.119 1143.97 721.719 1136.37C706.919 1129.97 718.919 1090.37 704.719 1085.17C698.219 1082.77 702.219 1101.37 693.719 1100.67C689.219 1100.27 679.819 1091.87 676.019 1095.67C674.419 1097.27 675.02 1100.87 675.42 1103.07C680.02 1123.37 713.619 1130.27 712.719 1144.17C712.319 1151.07 691.619 1151.37 686.519 1157.07C675.519 1169.27 677.519 1190.37 674.519 1206.77C674.319 1207.67 672.619 1212.77 673.519 1213.47C674.219 1213.97 675.62 1212.97 676.32 1212.77C680.12 1211.17 681.72 1207.07 685.12 1204.97C691.72 1200.87 699.519 1199.37 705.519 1194.17C706.419 1193.37 707.32 1192.47 708.12 1191.47C711.42 1187.17 715.32 1151.27 723.92 1169.77" fill="#F7F2EE"/>
<path d="M724.32 1174.37C724.52 1179.77 731.62 1198.17 738.12 1190.07C742.92 1183.97 735.12 1170.47 734.12 1163.37C734.02 1162.87 733.12 1160.07 733.82 1159.87C734.52 1159.67 739.82 1166.87 743.92 1165.87C754.12 1163.37 761.419 1153.47 772.219 1151.67C777.519 1150.77 791.32 1155.27 791.42 1153.47C791.52 1147.57 786.62 1139.97 783.62 1135.67C759.72 1101.67 739.119 1143.97 721.719 1136.37C706.919 1129.97 718.919 1090.37 704.719 1085.17C698.219 1082.77 702.219 1101.37 693.719 1100.67C689.219 1100.27 679.819 1091.87 676.019 1095.67C674.419 1097.27 675.02 1100.87 675.42 1103.07C680.02 1123.37 713.619 1130.27 712.719 1144.17C712.319 1151.07 691.619 1151.37 686.519 1157.07C675.519 1169.27 677.519 1190.37 674.519 1206.77C674.319 1207.67 672.619 1212.77 673.519 1213.47C674.219 1213.97 675.62 1212.97 676.32 1212.77C680.12 1211.17 681.72 1207.07 685.12 1204.97C691.72 1200.87 699.519 1199.37 705.519 1194.17C706.419 1193.37 707.32 1192.47 708.12 1191.47C711.42 1187.17 715.32 1151.27 723.92 1169.77" stroke="#161616" stroke-width="4" stroke-miterlimit="10" stroke-linecap="round" stroke-linejoin="round"/>
<path fill-rule="evenodd" clip-rule="evenodd" d="M480.719 1103.67C483.019 1108.87 477.219 1124.47 483.019 1122.17C487.419 1120.47 497.819 1105.87 500.019 1106.67C505.619 1108.67 518.019 1114.67 517.019 1106.67C516.519 1102.87 505.619 1094.67 500.019 1085.07C495.319 1076.87 513.019 1059.07 508.119 1051.77C505.919 1048.37 489.219 1050.97 486.119 1051.77C484.819 1052.07 483.819 1054.17 483.319 1055.57C478.519 1067.87 491.219 1075.27 486.119 1082.37C483.519 1085.97 470.72 1083.67 466.42 1085.07C457.12 1088.07 478.019 1097.47 480.719 1103.67Z" fill="#F7F2EE"/>
<path d="M480.719 1103.67C483.019 1108.87 477.219 1124.47 483.019 1122.17C487.419 1120.47 497.819 1105.87 500.019 1106.67C505.619 1108.67 518.019 1114.67 517.019 1106.67C516.519 1102.87 505.619 1094.67 500.019 1085.07C495.319 1076.87 513.019 1059.07 508.119 1051.77C505.919 1048.37 489.219 1050.97 486.119 1051.77C484.819 1052.07 483.819 1054.17 483.319 1055.57C478.519 1067.87 491.219 1075.27 486.119 1082.37C483.519 1085.97 470.72 1083.67 466.42 1085.07C457.12 1088.07 478.019 1097.47 480.719 1103.67Z" stroke="#161616" stroke-width="4" stroke-miterlimit="10" stroke-linecap="round" stroke-linejoin="round"/>
<path fill-rule="evenodd" clip-rule="evenodd" d="M71.5194 237.171C85.5194 236.871 356.62 254.671 520.62 256.471C644.22 257.871 753.019 261.171 755.719 247.771C760.219 225.971 278.919 231.371 213.019 206.671C190.219 198.071 190.319 168.571 235.519 167.271C273.219 166.271 370.919 168.471 439.319 169.371C471.119 169.771 479.619 169.271 481.719 167.871C489.519 162.871 493.02 140.271 451.42 140.271C388.12 140.171 348.22 130.271 359.62 112.871C365.02 104.471 379.019 94.9713 479.019 97.2713C545.919 98.7713 606.32 88.8713 650.12 79.7713C658.32 78.0713 662.419 61.3713 649.32 59.2713C633.52 56.6713 506.82 67.7714 511.92 38.8714C517.42 7.87138 636.619 11.3712 782.219 4.17119C860.019 0.371188 866.72 60.9715 834.32 72.9715C749.62 104.271 740.82 92.9713 695.12 97.7713C647.82 102.771 612.62 110.571 609.82 127.671C607.82 140.171 624.619 136.171 641.019 133.671C644.319 133.171 648.019 133.571 652.019 133.371C706.219 130.371 820.12 107.171 847.42 126.471C863.42 137.771 847.419 154.171 837.32 155.471C804.919 159.571 614.32 161.071 592.32 163.971C550.12 169.571 546.82 169.971 545.42 181.971C543.22 200.971 607.619 200.571 725.019 206.871C764.119 208.971 799.42 214.771 850.62 212.971C987.12 208.371 1069.12 228.971 1072.82 272.471C1077.62 328.671 962.419 332.572 854.82 327.072C591.82 313.872 606.22 309.671 604.92 315.271C598.52 341.971 612.22 393.771 705.92 389.771C793.72 386.071 949.92 377.572 981.42 403.072C1000.02 418.072 993.92 417.271 992.92 423.371C986.82 459.571 912.719 448.872 812.719 451.572C723.619 453.972 470.119 445.371 450.719 464.171C439.619 474.871 681.919 489.571 687.519 493.371C741.219 530.271 630.02 554.571 622.12 578.371C615.82 597.371 648.819 605.271 652.219 624.471C657.419 653.672 635.82 662.071 622.12 681.471C612.72 694.771 648.319 726.371 640.519 742.671C629.619 765.571 600.12 771.471 584.42 744.771C574.72 728.171 595.42 695.071 616.62 650.271C647.32 585.171 512.72 629.571 552.12 570.271C558.42 560.771 651.22 541.471 641.42 531.271C625.72 514.871 594.219 517.471 550.019 516.271C447.219 513.371 337.419 494.971 327.519 479.871C301.119 439.771 421.919 437.472 499.819 427.572C605.819 414.072 691.62 428.871 681.92 414.171C660.22 381.571 424.719 397.371 282.019 405.471C227.619 408.571 214.32 398.071 219.32 377.371C222.52 364.071 233.319 349.571 267.419 348.771C337.519 347.171 469.919 352.672 475.819 341.072C486.619 319.772 474.119 306.271 367.019 310.171C175.919 317.071 26.4195 319.271 20.4195 311.271C-8.18053 273.271 -0.18055 238.871 71.5194 237.171Z" fill="#00CCC5"/>
<path d="M71.5194 237.171C85.5194 236.871 356.62 254.671 520.62 256.471C644.22 257.871 753.019 261.171 755.719 247.771C760.219 225.971 278.919 231.371 213.019 206.671C190.219 198.071 190.319 168.571 235.519 167.271C273.219 166.271 370.919 168.471 439.319 169.371C471.119 169.771 479.619 169.271 481.719 167.871C489.519 162.871 493.02 140.271 451.42 140.271C388.12 140.171 348.22 130.271 359.62 112.871C365.02 104.471 379.019 94.9713 479.019 97.2713C545.919 98.7713 606.32 88.8713 650.12 79.7713C658.32 78.0713 662.42 61.3713 649.32 59.2713C633.52 56.6713 506.82 67.7714 511.92 38.8714C517.42 7.87138 636.619 11.3712 782.219 4.17119C860.019 0.371188 866.72 60.9715 834.32 72.9715C749.62 104.271 740.82 92.9713 695.12 97.7713C647.82 102.771 612.62 110.571 609.82 127.671C607.82 140.171 624.619 136.171 641.019 133.671C644.319 133.171 648.019 133.571 652.019 133.371C706.219 130.371 820.12 107.171 847.42 126.471C863.42 137.771 847.42 154.171 837.32 155.471C804.92 159.571 614.32 161.071 592.32 163.971C550.12 169.571 546.82 169.971 545.42 181.971C543.22 200.971 607.619 200.571 725.019 206.871C764.119 208.971 799.42 214.771 850.62 212.971C987.12 208.371 1069.12 228.971 1072.82 272.471C1077.62 328.671 962.42 332.572 854.82 327.072C591.82 313.872 606.22 309.671 604.92 315.271C598.52 341.971 612.22 393.771 705.92 389.771C793.72 386.071 949.92 377.572 981.42 403.072C1000.02 418.072 993.92 417.271 992.92 423.371C986.82 459.571 912.719 448.872 812.719 451.572C723.619 453.972 470.119 445.371 450.719 464.171C439.619 474.871 681.919 489.571 687.519 493.371C741.219 530.271 630.02 554.571 622.12 578.371C615.82 597.371 648.819 605.271 652.219 624.471C657.419 653.671 635.82 662.071 622.12 681.471C612.72 694.771 648.319 726.371 640.519 742.671C629.619 765.571 600.12 771.471 584.42 744.771C574.72 728.171 595.42 695.071 616.62 650.271C647.32 585.171 512.72 629.571 552.12 570.271C558.42 560.771 651.22 541.471 641.42 531.271C625.72 514.871 594.219 517.471 550.019 516.271C447.219 513.371 337.419 494.971 327.519 479.871C301.119 439.771 421.919 437.472 499.819 427.572C605.819 414.072 691.62 428.871 681.92 414.171C660.22 381.571 424.719 397.371 282.019 405.471C227.619 408.571 214.32 398.071 219.32 377.371C222.52 364.071 233.319 349.571 267.419 348.771C337.519 347.171 469.919 352.672 475.819 341.072C486.619 319.772 474.119 306.271 367.019 310.171C175.919 317.071 26.4195 319.271 20.4195 311.271C-8.18053 273.271 -0.18055 238.871 71.5194 237.171Z" stroke="#161616" stroke-width="8" stroke-miterlimit="10" stroke-linecap="round" stroke-linejoin="round"/>
<path fill-rule="evenodd" clip-rule="evenodd" d="M148.22 241.472C150.72 239.072 141.12 242.372 138.22 244.272C131.62 248.472 126.619 254.972 122.919 261.772C112.619 280.972 111.819 304.172 114.519 325.372C119.219 362.072 141.819 392.872 141.819 430.872C141.719 476.572 114.02 523.872 134.12 568.572C145.22 593.372 162.719 586.272 168.419 562.572C174.919 535.272 168.92 437.472 220.62 443.672C227.12 444.472 235.62 444.372 241.12 448.472C254.22 458.372 235.119 482.772 212.819 481.472C204.419 480.972 200.92 479.072 198.62 497.572C194.02 535.472 211.12 608.172 152.12 610.072C125.42 610.872 102.52 594.572 96.6195 568.172C85.7195 519.872 124.419 479.372 121.919 433.372C119.419 386.772 78.7195 352.372 82.7195 302.972C83.8195 289.272 89.8194 277.272 95.5194 264.972C120.319 211.772 160.419 226.172 143.819 241.472" fill="#F7F2EE"/>
<path opacity="0.9116" d="M148.22 241.472C150.72 239.072 141.12 242.372 138.22 244.272C131.62 248.472 126.619 254.972 122.919 261.772C112.619 280.972 111.819 304.172 114.519 325.372C119.219 362.072 141.819 392.872 141.819 430.872C141.719 476.572 114.02 523.872 134.12 568.572C145.22 593.372 162.719 586.272 168.419 562.572C174.919 535.272 168.92 437.472 220.62 443.672C227.12 444.472 235.62 444.372 241.12 448.472C254.22 458.372 235.119 482.772 212.819 481.472C204.419 480.972 200.92 479.072 198.62 497.572C194.02 535.472 211.12 608.172 152.12 610.072C125.42 610.872 102.52 594.572 96.6195 568.172C85.7195 519.872 124.419 479.372 121.919 433.372C119.419 386.772 78.7195 352.372 82.7195 302.972C83.8195 289.272 89.8194 277.272 95.5194 264.972C120.319 211.772 160.419 226.172 143.819 241.472" stroke="#161616" stroke-width="8" stroke-miterlimit="10" stroke-linecap="round" stroke-linejoin="round"/>
<path opacity="0.9116" d="M247.319 451.572C253.419 456.472 278.619 444.772 282.819 438.472" stroke="#161616" stroke-width="4" stroke-miterlimit="10" stroke-linecap="round" stroke-linejoin="round"/>
<path opacity="0.9116" d="M249.719 452.972C249.719 452.872 250.219 452.972 250.219 452.972C254.019 453.172 257.92 453.371 261.62 454.171C270.42 456.071 275.32 462.672 275.62 471.572" stroke="#161616" stroke-width="4" stroke-miterlimit="10" stroke-linecap="round" stroke-linejoin="round"/>
<path fill-rule="evenodd" clip-rule="evenodd" d="M158.319 241.171C159.019 240.671 157.319 242.672 156.819 243.372C155.919 244.972 155.119 246.671 154.319 248.271C152.019 252.771 149.719 257.272 147.719 261.972C144.219 270.272 125.619 327.672 143.019 324.472C155.219 322.272 159.719 301.571 166.919 278.771C175.119 252.871 178.819 227.971 165.319 236.171" fill="#F7F2EE"/>
<path opacity="0.9116" d="M158.319 241.171C159.019 240.671 157.319 242.672 156.819 243.372C155.919 244.972 155.119 246.671 154.319 248.271C152.019 252.771 149.719 257.272 147.719 261.972C144.219 270.272 125.619 327.672 143.019 324.472C155.219 322.272 159.719 301.571 166.919 278.771C175.119 252.871 178.819 227.971 165.319 236.171" stroke="#161616" stroke-width="8" stroke-miterlimit="10" stroke-linecap="round" stroke-linejoin="round"/>
<path fill-rule="evenodd" clip-rule="evenodd" d="M209.219 236.372C209.919 235.872 202.319 236.871 196.819 242.771C195.619 244.171 189.819 257.071 187.819 261.771C184.319 270.071 169.419 328.072 186.819 324.572C198.819 322.172 197.819 300.071 205.019 277.271C213.319 251.371 222.619 228.072 209.219 236.372Z" fill="#F7F2EE"/>
<path opacity="0.9116" d="M209.219 236.372C209.919 235.872 202.319 236.871 196.819 242.771C195.619 244.171 189.819 257.071 187.819 261.771C184.319 270.071 169.419 328.072 186.819 324.572C198.819 322.172 197.819 300.071 205.019 277.271C213.319 251.371 222.619 228.072 209.219 236.372Z" stroke="#161616" stroke-width="8" stroke-miterlimit="10" stroke-linecap="round" stroke-linejoin="round"/>
<path fill-rule="evenodd" clip-rule="evenodd" d="M233.62 241.972C233.32 242.072 231.62 251.971 231.62 252.171C232.62 259.771 235.719 269.072 240.319 274.972C253.519 291.972 279.619 289.471 299.719 290.171C301.219 290.171 318.319 291.072 319.019 289.472C324.319 276.072 308.219 276.272 307.219 276.072C295.519 273.172 280.319 275.772 270.219 268.872C266.419 266.272 261.719 268.171 260.019 263.771C256.819 255.371 259.019 249.771 256.819 241.171C252.919 226.171 237.12 232.272 233.62 241.972Z" fill="#F7F2EE"/>
<path opacity="0.9116" d="M233.62 241.972C233.32 242.072 231.62 251.971 231.62 252.171C232.62 259.771 235.719 269.072 240.319 274.972C253.519 291.972 279.619 289.471 299.719 290.171C301.219 290.171 318.319 291.072 319.019 289.472C324.319 276.072 308.219 276.272 307.219 276.072C295.519 273.172 280.319 275.772 270.219 268.872C266.419 266.272 261.719 268.171 260.019 263.771C256.819 255.371 259.019 249.771 256.819 241.171C252.919 226.171 237.12 232.272 233.62 241.972Z" stroke="#161616" stroke-width="8" stroke-miterlimit="10" stroke-linecap="round" stroke-linejoin="round"/>
<path opacity="0.9116" d="M237.719 263.572C239.519 265.272 253.62 261.272 255.62 259.072" stroke="#161616" stroke-width="4" stroke-miterlimit="10" stroke-linecap="round" stroke-linejoin="round"/>
<path opacity="0.9116" d="M248.719 278.872C249.419 279.772 252.519 278.171 253.319 277.771C257.119 275.871 261.02 272.871 262.62 268.671" stroke="#161616" stroke-width="4" stroke-miterlimit="10" stroke-linecap="round" stroke-linejoin="round"/>
<path opacity="0.9116" d="M267.019 288.271C266.619 288.771 268.519 287.871 268.619 287.771C269.619 286.971 270.619 285.972 271.419 284.872C274.019 281.872 276.019 278.272 277.019 274.472" stroke="#161616" stroke-width="4" stroke-miterlimit="10" stroke-linecap="round" stroke-linejoin="round"/>
<path fill-rule="evenodd" clip-rule="evenodd" d="M642.719 278.372C642.919 278.272 629.319 272.572 628.519 272.372C618.719 270.072 608.519 270.072 598.319 271.072C567.919 274.272 538.519 290.772 516.319 313.172C477.119 352.872 469.519 410.872 501.319 452.772C509.519 463.472 524.119 479.672 537.619 480.172C575.119 481.572 591.719 486.872 616.119 486.272C630.719 485.872 632.719 489.072 646.819 485.172C704.519 469.172 726.119 390.472 708.019 341.972C700.119 320.772 680.919 296.372 661.619 285.072C654.719 281.072 646.319 279.772 639.119 276.272" fill="#F7F2EE"/>
<path d="M642.719 278.372C642.919 278.272 629.319 272.572 628.519 272.372C618.719 270.072 608.519 270.072 598.319 271.072C567.919 274.272 538.519 290.772 516.319 313.172C477.119 352.872 469.519 410.872 501.319 452.772C509.519 463.472 524.119 479.672 537.619 480.172C575.119 481.572 591.719 486.872 616.119 486.272C630.719 485.872 632.719 489.072 646.819 485.172C704.519 469.172 726.119 390.472 708.019 341.972C700.119 320.772 680.919 296.372 661.619 285.072C654.719 281.072 646.319 279.772 639.119 276.272" stroke="#161616" stroke-width="8" stroke-miterlimit="10" stroke-linecap="round" stroke-linejoin="round"/>
<path fill-rule="evenodd" clip-rule="evenodd" d="M504.119 340.872C503.419 340.472 505.719 340.272 506.419 339.972C524.419 332.472 552.419 330.272 570.619 331.972C671.419 340.872 697.419 436.372 696.219 438.972C694.419 443.072 541.819 475.772 504.119 340.872Z" fill="#F7F2EE"/>
<path d="M504.119 340.872C503.419 340.472 505.719 340.272 506.419 339.972C524.419 332.472 552.419 330.272 570.619 331.972C671.419 340.872 697.419 436.372 696.219 438.972C694.419 443.072 541.819 475.772 504.119 340.872Z" stroke="#161616" stroke-width="8" stroke-miterlimit="10" stroke-linecap="round" stroke-linejoin="round"/>
<path fill-rule="evenodd" clip-rule="evenodd" d="M622.62 347.072C603.92 335.472 566.62 340.971 559.12 377.171C556.12 391.471 560.62 403.471 567.52 412.871C607.619 466.871 685.62 386.272 622.62 347.072Z" fill="black"/>
<path d="M622.62 347.072C603.92 335.472 566.62 340.971 559.12 377.171C556.12 391.471 560.62 403.471 567.52 412.871C607.619 466.871 685.62 386.272 622.62 347.072Z" stroke="#161616" stroke-width="8" stroke-miterlimit="10" stroke-linecap="round" stroke-linejoin="round"/>
<path fill-rule="evenodd" clip-rule="evenodd" d="M842.519 306.072C843.519 307.072 843.719 303.572 844.319 302.372C845.919 298.872 850.219 287.472 855.319 288.372C862.019 289.472 861.819 308.772 876.019 310.572C885.219 311.672 904.119 311.672 912.519 306.872C918.719 303.372 919.52 290.572 928.12 290.772C937.52 290.972 936.62 310.472 939.92 316.672C948.32 332.672 977.42 319.172 974.12 348.072C972.62 360.972 961.52 389.872 947.62 394.972C914.42 407.272 846.62 395.172 821.42 378.872C803.52 367.272 806.72 338.272 822.42 317.772C827.22 311.472 834.719 312.172 840.319 307.772" fill="#F7F2EE"/>
<path d="M842.519 306.072C843.519 307.072 843.719 303.572 844.319 302.372C845.919 298.872 850.219 287.472 855.319 288.372C862.019 289.472 861.819 308.772 876.019 310.572C885.219 311.672 904.119 311.672 912.519 306.872C918.719 303.372 919.52 290.572 928.12 290.772C937.52 290.972 936.62 310.472 939.92 316.672C948.32 332.672 977.42 319.172 974.12 348.072C972.62 360.972 961.52 389.872 947.62 394.972C914.42 407.272 846.62 395.172 821.42 378.872C803.52 367.272 806.72 338.272 822.42 317.772C827.22 311.472 834.719 312.172 840.319 307.772" stroke="#161616" stroke-width="8" stroke-miterlimit="10" stroke-linecap="round" stroke-linejoin="round"/>
<path fill-rule="evenodd" clip-rule="evenodd" d="M929.42 403.171C920.02 414.971 927.72 446.671 946.62 438.271C969.72 427.971 963.52 397.372 938.92 398.972" fill="#F7F2EE"/>
<path d="M929.42 403.171C920.02 414.971 927.72 446.671 946.62 438.271C969.72 427.971 963.52 397.372 938.92 398.972" stroke="#161616" stroke-width="8" stroke-miterlimit="10" stroke-linecap="round" stroke-linejoin="round"/>
<path fill-rule="evenodd" clip-rule="evenodd" d="M806.62 382.871C797.22 394.671 804.919 426.372 823.819 417.972C846.919 407.672 840.72 377.071 816.12 378.671" fill="#F7F2EE"/>
<path d="M806.62 382.871C797.22 394.671 804.919 426.372 823.819 417.972C846.919 407.672 840.72 377.071 816.12 378.671" stroke="#161616" stroke-width="8" stroke-miterlimit="10" stroke-linecap="round" stroke-linejoin="round"/>
<path fill-rule="evenodd" clip-rule="evenodd" d="M912.92 228.372C910.02 225.772 901.419 231.872 899.519 233.572C891.519 241.172 891.519 262.372 904.819 264.872C930.219 269.672 937.919 231.772 913.219 226.072" fill="#F7F2EE"/>
<path d="M912.92 228.372C910.02 225.772 901.419 231.872 899.519 233.572C891.519 241.172 891.519 262.372 904.819 264.872C930.219 269.672 937.919 231.772 913.219 226.072" stroke="#161616" stroke-width="4" stroke-miterlimit="10" stroke-linecap="round" stroke-linejoin="round"/>
<path opacity="0.9116" fill-rule="evenodd" clip-rule="evenodd" d="M907.82 228.772C899.42 223.572 893.62 201.972 893.12 192.372C892.82 187.272 893.52 181.272 898.42 178.672C907.92 173.672 914.019 184.872 922.219 186.272C931.519 187.872 940.92 181.972 950.12 186.672C959.82 191.572 957.52 204.072 952.32 211.272C944.52 222.172 925.12 232.872 911.12 230.572" fill="black"/>
<path d="M907.82 228.772C899.42 223.572 893.62 201.972 893.12 192.372C892.82 187.272 893.52 181.272 898.42 178.672C907.92 173.672 914.019 184.872 922.219 186.272C931.519 187.872 940.92 181.972 950.12 186.672C959.82 191.572 957.52 204.072 952.32 211.272C944.52 222.172 925.12 232.872 911.12 230.572" stroke="black" stroke-width="4" stroke-miterlimit="10" stroke-linecap="round" stroke-linejoin="round"/>
<path fill-rule="evenodd" clip-rule="evenodd" d="M922.42 198.572C921.62 197.772 921.42 200.572 920.92 201.472C919.82 203.472 918.92 205.472 917.92 207.572C914.92 213.772 912.02 220.372 912.62 227.472" fill="#F7F2EE"/>
<path opacity="0.9116" d="M922.42 198.572C921.62 197.772 921.42 200.572 920.92 201.472C919.82 203.472 918.92 205.472 917.92 207.572C914.92 213.772 912.02 220.372 912.62 227.472" stroke="#F7F2EE" stroke-width="4" stroke-miterlimit="10" stroke-linecap="round" stroke-linejoin="round"/>
<path opacity="0.9116" fill-rule="evenodd" clip-rule="evenodd" d="M893.519 241.771C893.719 242.471 894.12 240.371 894.42 239.671C895.02 238.271 895.619 236.771 896.019 235.271C897.319 230.571 897.319 226.072 896.019 221.372C892.719 210.072 879.919 192.372 865.819 200.972C855.919 206.972 863.619 215.672 861.219 223.972C859.319 230.672 854.019 235.371 853.719 242.671C853.419 251.071 860.219 256.371 868.319 255.171C875.619 254.171 882.019 249.272 888.219 245.572" fill="black"/>
<path d="M893.519 241.771C893.719 242.471 894.12 240.371 894.42 239.671C895.02 238.271 895.619 236.771 896.019 235.271C897.319 230.571 897.319 226.072 896.019 221.372C892.719 210.072 879.919 192.372 865.819 200.972C855.919 206.972 863.619 215.672 861.219 223.972C859.319 230.672 854.019 235.371 853.719 242.671C853.419 251.071 860.219 256.371 868.319 255.171C875.619 254.171 882.019 249.272 888.219 245.572" stroke="black" stroke-width="4" stroke-miterlimit="10" stroke-linecap="round" stroke-linejoin="round"/>
<path opacity="0.9116" fill-rule="evenodd" clip-rule="evenodd" d="M927.42 248.671C927.32 249.171 927.72 247.571 927.92 247.171C928.52 246.071 929.22 245.072 929.82 244.072C931.62 241.072 933.619 238.272 935.719 235.372C941.119 227.772 954.219 210.772 963.719 224.472C968.719 231.572 960.52 237.271 959.32 243.671C958.62 247.671 962.719 250.771 964.019 254.271C966.819 262.071 962.72 269.772 956.42 274.372C945.02 282.772 925.119 277.272 926.219 261.072" fill="black"/>
<path d="M927.42 248.671C927.32 249.171 927.72 247.571 927.92 247.171C928.52 246.071 929.22 245.072 929.82 244.072C931.62 241.072 933.619 238.272 935.719 235.372C941.119 227.772 954.219 210.772 963.719 224.472C968.719 231.572 960.52 237.271 959.32 243.671C958.62 247.671 962.719 250.771 964.019 254.271C966.819 262.071 962.72 269.772 956.42 274.372C945.02 282.772 925.119 277.272 926.219 261.072" stroke="black" stroke-width="4" stroke-miterlimit="10" stroke-linecap="round" stroke-linejoin="round"/>
<path opacity="0.9116" d="M902.719 265.271C902.719 265.271 899.82 267.771 899.52 268.171C897.02 271.471 894.82 275.272 892.92 278.972C887.32 290.172 887.42 296.871 891.32 309.271" stroke="#161616" stroke-width="4" stroke-miterlimit="10" stroke-linecap="round" stroke-linejoin="round"/>
<path fill-rule="evenodd" clip-rule="evenodd" d="M869.919 227.972C869.219 228.472 871.619 228.071 872.419 228.171C874.219 228.371 876.019 228.871 877.819 229.271C883.419 230.771 886.619 233.572 890.119 237.872" fill="#F7F2EE"/>
<path opacity="0.9116" d="M869.919 227.972C869.219 228.472 871.619 228.071 872.419 228.171C874.219 228.371 876.019 228.871 877.819 229.271C883.419 230.771 886.619 233.572 890.119 237.872" stroke="#F7F2EE" stroke-width="4" stroke-miterlimit="10" stroke-linecap="round" stroke-linejoin="round"/>
<path fill-rule="evenodd" clip-rule="evenodd" d="M949.62 252.172C950.32 251.972 948.419 253.072 947.719 253.472C946.319 254.172 944.92 254.672 943.42 254.972C938.32 256.172 934.92 255.372 930.42 253.272" fill="#F7F2EE"/>
<path opacity="0.9116" d="M949.62 252.172C950.32 251.972 948.419 253.072 947.719 253.472C946.319 254.172 944.92 254.672 943.42 254.972C938.32 256.172 934.92 255.372 930.42 253.272" stroke="#F7F2EE" stroke-width="4" stroke-miterlimit="10" stroke-linecap="round" stroke-linejoin="round"/>
<path fill-rule="evenodd" clip-rule="evenodd" d="M905.42 342.671C917.42 343.671 909.819 342.872 917.219 343.372L905.42 342.671Z" fill="#F7F2EE"/>
<path d="M905.42 342.671C917.42 343.671 909.819 342.872 917.219 343.372" stroke="#161616" stroke-width="4" stroke-miterlimit="10" stroke-linecap="round" stroke-linejoin="round"/>
<path fill-rule="evenodd" clip-rule="evenodd" d="M858.42 338.271C870.42 339.271 862.819 338.572 870.219 338.972L858.42 338.271Z" fill="#F7F2EE"/>
<path d="M858.42 338.271C870.42 339.271 862.819 338.572 870.219 338.972" stroke="#161616" stroke-width="4" stroke-miterlimit="10" stroke-linecap="round" stroke-linejoin="round"/>
<path fill-rule="evenodd" clip-rule="evenodd" d="M880.419 353.671C876.219 360.471 893.919 364.471 894.019 357.371C894.019 354.771 891.319 339.771 880.419 353.671Z" fill="#F7F2EE"/>
<path d="M880.419 353.671C876.219 360.471 893.919 364.471 894.019 357.371C894.019 354.771 891.319 339.771 880.419 353.671Z" stroke="#161616" stroke-width="4" stroke-miterlimit="10" stroke-linecap="round" stroke-linejoin="round"/>
<path fill-rule="evenodd" clip-rule="evenodd" d="M886.619 363.072C887.919 361.972 884.72 365.972 883.42 367.072C881.42 368.872 876.02 373.372 873.42 374.072C868.82 375.272 849.719 371.571 853.819 361.271" fill="#F7F2EE"/>
<path d="M886.619 363.072C887.919 361.972 884.72 365.972 883.42 367.072C881.42 368.872 876.02 373.372 873.42 374.072C868.82 375.272 849.719 371.571 853.819 361.271" stroke="#161616" stroke-width="4" stroke-miterlimit="10" stroke-linecap="round" stroke-linejoin="round"/>
<path fill-rule="evenodd" clip-rule="evenodd" d="M887.619 364.372C883.519 370.772 895.219 378.272 907.919 381.872C913.419 383.472 919.119 375.771 921.219 373.271" fill="#F7F2EE"/>
<path d="M887.619 364.372C883.519 370.772 895.219 378.272 907.919 381.872C913.419 383.472 919.119 375.771 921.219 373.271" stroke="#161616" stroke-width="4" stroke-miterlimit="10" stroke-linecap="round" stroke-linejoin="round"/>
<path opacity="0.9116" fill-rule="evenodd" clip-rule="evenodd" d="M642.32 983.872C641.32 982.772 641.119 993.472 638.719 994.072C636.119 994.672 615.02 1008.07 624.62 1012.17C628.72 1013.87 637.92 1016.27 641.12 1022.07C646.12 1030.97 644.72 1043.77 648.92 1043.87C649.92 1043.87 650.82 1043.27 651.42 1042.47C652.92 1040.77 649.82 1026.77 654.92 1019.77C659.72 1013.27 672.619 1013.87 673.219 1008.67C674.119 1000.67 654.32 998.972 651.42 994.172C646.72 986.272 650.82 981.472 648.92 977.872C646.82 973.672 642.62 983.372 642.32 983.872Z" fill="#F7F2EE"/>
<path d="M642.32 983.872C641.32 982.772 641.119 993.472 638.719 994.072C636.119 994.672 615.02 1008.07 624.62 1012.17C628.72 1013.87 637.92 1016.27 641.12 1022.07C646.12 1030.97 644.72 1043.77 648.92 1043.87C649.92 1043.87 650.82 1043.27 651.42 1042.47C652.92 1040.77 649.82 1026.77 654.92 1019.77C659.72 1013.27 672.619 1013.87 673.219 1008.67C674.119 1000.67 654.32 998.972 651.42 994.172C646.72 986.272 650.82 981.472 648.92 977.872C646.82 973.672 642.62 983.372 642.32 983.872Z" stroke="#161616" stroke-width="4" stroke-miterlimit="10" stroke-linecap="round" stroke-linejoin="round"/>
<path opacity="0.9116" fill-rule="evenodd" clip-rule="evenodd" d="M738.519 962.171C738.419 962.271 768.52 1034.07 778.62 1020.47C786.92 1009.27 760.92 988.371 756.62 983.271C755.02 981.371 748.119 955.371 738.519 962.171Z" fill="#F7F2EE"/>
<path d="M738.519 962.171C738.419 962.271 768.52 1034.07 778.62 1020.47C786.92 1009.27 760.92 988.371 756.62 983.271C755.02 981.371 748.119 955.371 738.519 962.171Z" stroke="#161616" stroke-width="4" stroke-miterlimit="10" stroke-linecap="round" stroke-linejoin="round"/>
<path opacity="0.9116" fill-rule="evenodd" clip-rule="evenodd" d="M599.119 863.972C606.319 865.172 604.519 872.972 603.919 876.872C601.919 888.672 588.519 925.271 565.819 921.171C563.019 920.671 561.419 918.971 562.719 916.171C566.319 908.871 575.919 902.672 581.019 895.872C587.819 886.772 590.319 877.472 595.119 868.072C595.819 866.672 597.119 864.572 599.119 863.972Z" fill="#F7F2EE"/>
<path d="M599.119 863.972C606.319 865.172 604.519 872.972 603.919 876.872C601.919 888.672 588.519 925.271 565.819 921.171C563.019 920.671 561.419 918.971 562.719 916.171C566.319 908.871 575.919 902.672 581.019 895.872C587.819 886.772 590.319 877.472 595.119 868.072C595.819 866.672 597.119 864.572 599.119 863.972Z" stroke="#161616" stroke-width="4" stroke-miterlimit="10" stroke-linecap="round" stroke-linejoin="round"/>
<path fill-rule="evenodd" clip-rule="evenodd" d="M181.019 27.5716C179.219 27.7716 184.719 28.7715 185.919 30.4715C189.519 35.5715 188.219 36.9715 182.819 40.4715C175.919 44.9715 140.919 40.2715 138.919 44.9715C137.019 49.6715 163.519 54.8712 164.019 67.1712C164.419 76.2712 73.1194 79.2716 70.5194 69.5716C68.1194 60.3716 103.919 58.2714 113.019 54.3714C113.619 54.0714 115.119 53.5716 115.019 52.5716C114.719 48.2716 90.0195 43.6713 89.1195 35.7713C88.0195 24.9713 160.619 25.2716 181.019 27.5716Z" fill="#00CCC5"/>
<path d="M181.019 27.5716C179.219 27.7716 184.719 28.7715 185.919 30.4715C189.519 35.5715 188.219 36.9715 182.819 40.4715C175.919 44.9715 140.919 40.2715 138.919 44.9715C137.019 49.6715 163.519 54.8712 164.019 67.1712C164.419 76.2712 73.1194 79.2716 70.5194 69.5716C68.1194 60.3716 103.919 58.2714 113.019 54.3714C113.619 54.0714 115.119 53.5716 115.019 52.5716C114.719 48.2716 90.0195 43.6713 89.1195 35.7713C88.0195 24.9713 160.619 25.2716 181.019 27.5716Z" stroke="#161616" stroke-width="8" stroke-miterlimit="10" stroke-linecap="round" stroke-linejoin="round"/>
<path fill-rule="evenodd" clip-rule="evenodd" d="M1072.62 84.6713C1075.02 91.3713 1069.52 97.8716 1090.52 94.4716C1106.92 91.8716 1189.72 87.4714 1190.82 104.271C1192.22 125.871 1101.82 106.171 1091.32 116.171C1079.32 127.671 1136.32 127.072 1146.72 131.072C1148.02 131.572 1152.42 133.272 1150.92 135.572C1149.52 137.672 1146.02 138.472 1143.92 139.072C1133.12 142.072 1005.72 151.672 997.819 136.472C989.319 119.972 1035.72 122.072 1044.72 109.472C1050.62 101.272 1014.62 80.7715 1022.62 68.3715C1029.02 58.4715 1057.82 57.3716 1080.72 56.4716C1116.82 55.0716 1127.52 69.1716 1124.42 70.9716C1114.52 76.9716 1068.22 72.6713 1072.62 84.6713Z" fill="#00CCC5"/>
<path opacity="0.9116" d="M1072.62 84.6713C1075.02 91.3713 1069.52 97.8716 1090.52 94.4716C1106.92 91.8716 1189.72 87.4714 1190.82 104.271C1192.22 125.871 1101.82 106.171 1091.32 116.171C1079.32 127.671 1136.32 127.072 1146.72 131.072C1148.02 131.572 1152.42 133.272 1150.92 135.572C1149.52 137.672 1146.02 138.472 1143.92 139.072C1133.12 142.072 1005.72 151.672 997.819 136.472C989.319 119.972 1035.72 122.072 1044.72 109.472C1050.62 101.272 1014.62 80.7715 1022.62 68.3715C1029.02 58.4715 1057.82 57.3716 1080.72 56.4716C1116.82 55.0716 1127.52 69.1716 1124.42 70.9716C1114.52 76.9716 1068.22 72.6713 1072.62 84.6713Z" stroke="#161616" stroke-width="8" stroke-miterlimit="10" stroke-linecap="round" stroke-linejoin="round"/>
<path fill-rule="evenodd" clip-rule="evenodd" d="M724.019 55.3716C721.319 54.4716 738.919 19.9715 740.819 20.2715C746.619 21.3715 748.62 49.6715 753.42 53.2715C759.02 57.5715 785.42 44.8717 789.62 51.9717C792.22 56.3717 764.319 77.3717 764.519 80.9717C764.719 87.4717 783.519 114.372 776.319 121.072C771.519 125.672 742.52 102.172 735.12 101.072C726.42 99.6718 706.82 123.572 699.42 120.472C698.22 119.972 699.02 117.671 699.42 116.671C702.22 109.071 716.02 94.2717 713.62 85.9717C710.72 75.9717 681.22 69.5714 681.12 66.6714C680.42 52.5714 721.619 61.8716 724.019 55.3716Z" fill="#F7F2EE"/>
<path opacity="0.9116" d="M724.019 55.3716C721.319 54.4716 738.919 19.9715 740.819 20.2715C746.619 21.3715 748.62 49.6715 753.42 53.2715C759.02 57.5715 785.42 44.8717 789.62 51.9717C792.22 56.3717 764.319 77.3717 764.519 80.9717C764.719 87.4717 783.519 114.372 776.319 121.072C771.519 125.672 742.52 102.172 735.12 101.072C726.42 99.6718 706.82 123.572 699.42 120.472C698.22 119.972 699.02 117.671 699.42 116.671C702.22 109.071 716.02 94.2717 713.62 85.9717C710.72 75.9717 681.22 69.5714 681.12 66.6714C680.42 52.5714 721.619 61.8716 724.019 55.3716Z" stroke="#161616" stroke-width="8" stroke-miterlimit="10" stroke-linecap="round" stroke-linejoin="round"/>
<path fill-rule="evenodd" clip-rule="evenodd" d="M345.819 166.671C340.319 169.371 320.419 130.472 318.219 123.772C300.519 70.0715 359.119 57.0714 397.019 76.6714C414.319 85.5714 422.819 102.672 429.419 120.072C433.619 131.172 436.819 142.872 443.819 152.572C445.119 154.472 450.82 158.972 450.42 161.472C449.52 167.272 431.519 168.471 427.519 168.671C402.419 170.071 375.019 171.772 350.519 165.272" fill="#161616"/>
<path opacity="0.9116" d="M345.819 166.671C340.319 169.371 320.419 130.472 318.219 123.772C300.519 70.0715 359.119 57.0714 397.019 76.6714C414.319 85.5714 422.819 102.672 429.419 120.072C433.619 131.172 436.819 142.872 443.819 152.572C445.119 154.472 450.82 158.972 450.42 161.472C449.52 167.272 431.519 168.471 427.519 168.671C402.419 170.071 375.019 171.772 350.519 165.272" stroke="black" stroke-width="8" stroke-miterlimit="10" stroke-linecap="round" stroke-linejoin="round"/>
<path opacity="0.9116" d="M364.32 166.171C364.22 166.771 357.62 159.372 357.32 159.072C353.22 153.472 349.92 147.471 347.32 140.971C339.02 120.371 342.12 99.3716 366.82 95.0716C389.42 91.0716 406.819 104.971 412.419 126.271C414.219 133.071 416.72 143.071 411.22 148.871C398.12 162.771 366.92 151.971 367.72 131.871C368.22 118.671 388.42 112.671 394.12 125.771C397.32 133.371 386.52 141.072 380.72 135.072C376.42 130.672 385.02 125.371 387.12 128.671" stroke="#F7F2EE" stroke-width="4" stroke-miterlimit="10" stroke-linecap="round" stroke-linejoin="round"/>
<path opacity="0.9116" d="M327.019 146.572C327.819 148.572 324.519 142.972 323.019 141.472C319.819 138.472 315.919 136.072 311.919 134.572C301.819 130.972 283.919 131.972 283.919 146.572C283.819 168.372 317.119 166.272 331.519 163.972C333.019 163.772 336.219 163.472 336.319 161.372C336.319 158.472 330.519 154.272 329.019 151.672" stroke="black" stroke-width="8" stroke-miterlimit="10" stroke-linecap="round" stroke-linejoin="round"/>
<path opacity="0.9116" d="M287.619 136.572C277.019 135.272 259.219 112.972 275.219 106.572C283.119 103.472 292.119 115.171 284.019 119.171" stroke="#161616" stroke-width="4" stroke-miterlimit="10" stroke-linecap="round" stroke-linejoin="round"/>
</svg>
